<?xml version="1.0" encoding="UTF-8"?><svg id="Layer_2" xmlns="http://www.w3.org/2000/svg" viewBox="0 0 346.78 378.35"><defs><style>.cls-1{fill:#c1282e;}.cls-2{fill:#454545;}</style></defs><g id="Layer_1-2"><path class="cls-1" d="m150.32,378.35h-19.94c-23.69,0-42.52-2.56-56.5-7.67-13.98-5.11-25.48-11.67-34.51-19.68-12.44-10.9-22.11-24.45-29.02-40.65-6.9-16.19-10.35-35.02-10.35-56.5,0-25.56,4.13-47.38,12.4-65.44,8.27-18.06,19.13-32.98,32.59-44.74,8.01-7.16,18.15-13.21,30.42-18.15,12.27-4.94,25.9-7.92,40.9-8.95l-.26-116.57h34.26c0,5.46-.04,34.73-.13,87.81-.09,53.09-.13,90.71-.13,112.87s.04,56.33.13,102c.08,45.68.13,70.9.13,75.67Zm-34-171.28v-61.35c-9.06,0-18.08,1.71-27.06,5.11-8.98,3.41-16.8,8.1-23.46,14.06-9.57,8.69-17.18,20.24-22.82,34.64-5.64,14.4-8.46,32.34-8.46,53.81,0,16.87,2.18,31.62,6.54,44.23,4.36,12.62,11.15,23.18,20.39,31.7,6.5,5.97,14.32,10.78,23.46,14.44,9.15,3.67,18.42,5.5,27.82,5.5h3.59v-142.14Z"/><path class="cls-2" d="m196.56,349.21c-.05,18.91-.08,26.8-.08,27.35,0,.02,0,.21,0,.47,0,.22,0,.53,0,1.32h19.94c23.69,0,42.52-2.56,56.5-7.67,13.98-5.11,25.48-11.67,34.51-19.68,12.44-10.9,22.11-24.45,29.02-40.65,6.9-16.19,10.35-35.02,10.35-56.5,0-25.56-4.13-47.38-12.4-65.44-8.27-18.06-19.13-32.98-32.59-44.74-8.01-7.16-18.15-13.21-30.42-18.15-12.27-4.94-25.9-7.92-40.9-8.95h-33.83v29.14s33.83,0,33.83,0c9.06,0,18.08,1.71,27.06,5.11,8.98,3.41,16.8,8.1,23.46,14.06,9.57,8.69,17.18,20.24,22.82,34.64,5.64,14.4,8.46,32.34,8.46,53.81,0,16.87-2.18,31.62-6.54,44.23-4.36,12.62-11.15,23.18-20.39,31.7-2.4,2.21-10.59,9.42-23.46,14.44-9.82,3.83-17.41,4.46-31.42,5.5-8.34.62-19.94,1.02-33.91,0Z"/></g></svg>