<?xml version="1.0" encoding="UTF-8"?><svg id="Layer_2" xmlns="http://www.w3.org/2000/svg" viewBox="0 0 1177.96 312.69"><defs><style>.cls-1{fill:#c1282e;}.cls-2{fill:#454545;}.cls-3{fill:#888;}</style></defs><g id="Layer_1-2"><path class="cls-1" d="m89.6,172.76c0,10.57-2.04,19.61-6.12,27.15-4.08,7.53-9.26,13.71-15.54,18.52-5.96,4.6-13.05,8.13-21.26,10.59-8.21,2.46-16.24,3.74-24.09,3.84-4.71.1-8.89,0-12.55-.31-3.66-.31-6.38-.68-8.16-1.1l-1.88-19.93c2.2.42,5.12.81,8.79,1.18,3.66.37,9.1.55,16.32.55,5.75,0,11.4-.89,16.95-2.67,5.54-1.78,10.09-4.29,13.65-7.53,3.66-3.35,6.54-7.3,8.63-11.85,2.09-4.55,3.14-10.12,3.14-16.71s-1.25-12.16-3.77-17.34-5.75-9.65-9.73-13.42c-2.72-2.61-6.93-6.3-12.63-11.06-5.7-4.76-10.38-8.65-14.04-11.69-6.9-5.75-12.66-12.47-17.26-20.16-4.6-7.69-6.9-16.66-6.9-26.91,0-8.58,1.54-16.08,4.63-22.52,3.08-6.43,7.14-12.11,12.16-17.03,5.23-5.12,12.11-9.18,20.63-12.16,8.53-2.98,16.29-4.52,23.3-4.63,5.34-.1,9.31-.08,11.93.08,2.61.16,4.97.34,7.06.55l1.88,19.77c-1.57-.1-3.74-.29-6.51-.55-2.77-.26-7.3-.34-13.57-.24-5.33.11-10.49.92-15.46,2.43-4.97,1.52-9.44,4.06-13.42,7.61-2.93,2.62-5.41,6.04-7.45,10.28-2.04,4.24-3.06,8.87-3.06,13.89,0,7.12,1.49,13.16,4.47,18.12,2.98,4.97,6.36,9.23,10.12,12.79,3.03,2.82,6.64,5.91,10.83,9.26,4.18,3.35,9,7.22,14.44,11.61,7.22,5.86,13.1,12.74,17.65,20.63,4.55,7.9,6.83,17.55,6.83,28.95Z"/><path class="cls-1" d="m173.39,211.84l-2.04,18.36c-.84.1-1.86.18-3.06.24-1.2.05-2.64.08-4.32.08-13.91,0-25.26-3.63-34.05-10.91-8.79-7.27-13.18-21.31-13.18-42.13,0-14.33.02-29.58.08-45.74.05-16.16.08-30.73.08-43.7h-17.42v-16.79h17.58v-36.4h20.71v36.4h34.36v16.79h-34.36c0,2.93-.03,9.76-.08,20.48-.05,10.72-.08,18.54-.08,23.46,0,4.19.02,9.18.08,14.99.05,5.81.08,15.77.08,29.89s2.68,24.01,8.04,28.4,12.37,6.59,21.01,6.59h6.56Z"/><path class="cls-1" d="m261.89,88.19c-4.6,1.77-11.04,4.66-19.3,8.66-8.26,4-18.62,9.85-31.07,17.55,0,2.93-.03,8.22-.08,15.87-.05,7.65-.08,16.5-.08,26.55,0,12.47.02,26.95.08,43.45.05,16.5.08,26.42.08,29.77h-21.03c0-4.18.02-14.83.08-31.93.05-17.1.08-35.07.08-53.9,0-13.91-.03-26.21-.08-36.88-.05-10.67-.08-22.7-.08-36.09h21.03l-.16,25.26.31.16c11.82-9.42,21.5-16.27,29.03-20.56,7.53-4.29,12.66-7.16,15.38-8.63l5.81,20.71Z"/><path class="cls-1" d="m348.67,144.21h-68.57c0,12.45,1.04,22.89,3.14,31.3,2.09,8.42,5.49,15.4,10.2,20.95,4.71,5.44,10.04,9.42,16,11.93s12.97,3.77,21.03,3.77c3.66,0,6.38-.05,8.16-.16,1.78-.1,3.24-.21,4.39-.31l-2.51,18.52c-1.26.1-2.51.21-3.77.31-1.26.1-4.19.16-8.79.16-12.24-.11-22.7-2.3-31.38-6.59-8.68-4.29-15.75-10.3-21.18-18.04-5.23-7.53-9.23-16.29-12-26.28-2.77-9.99-4.16-20.37-4.16-31.15,0-12.66.89-23.48,2.67-32.48,1.78-9,5.23-17.83,10.36-26.52,4.5-7.63,9.62-13.23,15.38-16.79,5.75-3.56,12.13-5.33,19.14-5.33,6.49,0,12.29,1.49,17.42,4.47,5.12,2.98,9.52,7.35,13.18,13.1,3.97,6.8,6.83,15.06,8.55,24.79,1.73,9.73,2.64,21.18,2.75,34.36Zm-20.08-16.32c-1.05-14.85-3.53-25.73-7.45-32.64s-9.13-10.36-15.61-10.36-11.85,3.32-16.08,9.96c-4.24,6.64-7.25,17.65-9.02,33.03h48.17Z"/><path class="cls-1" d="m443.13,139.03v91.01c-2.93.52-6.38.97-10.36,1.33-3.98.37-8.74.55-14.28.55-7.64,0-14.57-.81-20.79-2.43-6.22-1.62-12.06-4.16-17.5-7.61-5.75-3.66-10.41-8.76-13.96-15.3-3.56-6.54-5.33-13.99-5.33-22.36,0-9.31,2.09-17.29,6.28-23.93,4.18-6.64,9.73-12.26,16.63-16.87,3.56-2.41,8.73-4.92,15.54-7.53,6.8-2.61,14.49-4.71,23.07-6.28-.21-9.1-1.23-16.27-3.06-21.5-1.83-5.23-4.84-9.47-9.02-12.71-3.98-3.03-8.63-4.97-13.96-5.81-5.34-.84-10.88-1.26-16.63-1.26-1.57,0-2.85.03-3.84.08-1,.05-2.02.08-3.06.08l2.2-18.52c1.04-.1,2.3-.18,3.77-.24,1.46-.05,3.87-.08,7.22-.08,10.98,0,20.27,1.62,27.85,4.86,7.58,3.24,13.78,8.16,18.59,14.75,4.18,5.75,7.01,12.21,8.47,19.38,1.46,7.17,2.2,17.29,2.2,30.36Zm-20.71,42.13v-33.97c-3.56.52-8,1.7-13.34,3.52-5.33,1.83-9.94,4.04-13.81,6.65-3.77,2.51-6.85,6.21-9.26,11.12-2.41,4.91-3.61,10.07-3.61,15.5s1.07,10.65,3.22,15.03c2.14,4.38,4.73,7.62,7.77,9.71,3.03,2.09,6.38,3.68,10.04,4.78,3.66,1.1,7.53,1.64,11.61,1.64h3.37c1.2,0,2.54-.1,4-.31v-33.66Z"/><path class="cls-1" d="m630.8,230.04h-21.03c0-2.93.02-12.4.08-28.4.05-16.01.08-27.56.08-34.68,0-10.04-.03-19.82-.08-29.34-.05-9.52-.08-15.27-.08-17.26,0-13.08-1.02-21.94-3.06-26.6-2.04-4.65-6.2-6.98-12.47-6.98-4.08,0-8.94,1.65-14.59,4.94-5.65,3.3-10.78,6.88-15.38,10.75v6.28c0,7.85-.03,16.58-.08,26.21-.05,9.63-.08,17.47-.08,23.54,0,7.12.02,20.03.08,38.76.05,18.73.08,29.66.08,32.79h-21.03c0-2.09.02-11.35.08-27.77.05-16.42.08-28.19.08-35.31,0-10.04-.03-19.82-.08-29.34-.05-9.52-.08-15.27-.08-17.26,0-5.54-.16-10.33-.47-14.36-.31-4.03-.79-7.3-1.41-9.81-.94-3.45-2.46-5.88-4.55-7.3-2.09-1.41-4.92-2.12-8.47-2.12-4.08,0-9.08,1.78-14.99,5.34-5.91,3.56-11.17,7.27-15.77,11.14v58.69c0,11.61.02,25.24.08,40.88.05,15.64.08,24.71.08,27.22h-21.03c0-3.97.02-11.19.08-21.65.05-10.46.08-30.23.08-59.31,0-26.26-.03-43.18-.08-50.76-.05-7.58-.08-16.61-.08-27.07h21.03l-.16,13.65.31.16c6.07-4.71,12.5-8.81,19.3-12.32,6.8-3.5,13.34-5.26,19.61-5.26s11.4,1.54,15.69,4.63c4.29,3.09,7.38,7.77,9.26,14.04h.47c7.22-5.54,14.15-10.04,20.79-13.49,6.64-3.45,13.21-5.18,19.69-5.18,9.31,0,16.29,3.53,20.95,10.59,4.65,7.06,6.98,16.29,6.98,27.7v52.72c0,7.12.02,20.14.08,39.07.05,18.94.08,29.76.08,32.48Z"/><path class="cls-1" d="m746.13,144.21h-68.57c0,12.45,1.04,22.89,3.14,31.3,2.09,8.42,5.49,15.4,10.2,20.95,4.71,5.44,10.04,9.42,16,11.93s12.97,3.77,21.03,3.77c3.66,0,6.38-.05,8.16-.16,1.78-.1,3.24-.21,4.39-.31l-2.51,18.52c-1.26.1-2.51.21-3.77.31-1.26.1-4.19.16-8.79.16-12.24-.11-22.7-2.3-31.38-6.59-8.68-4.29-15.75-10.3-21.18-18.04-5.23-7.53-9.23-16.29-12-26.28-2.77-9.99-4.16-20.37-4.16-31.15,0-12.66.89-23.48,2.67-32.48,1.78-9,5.23-17.83,10.36-26.52,4.5-7.63,9.62-13.23,15.38-16.79,5.75-3.56,12.13-5.33,19.14-5.33,6.49,0,12.29,1.49,17.42,4.47,5.12,2.98,9.52,7.35,13.18,13.1,3.97,6.8,6.83,15.06,8.55,24.79,1.73,9.73,2.64,21.18,2.75,34.36Zm-20.08-16.32c-1.05-14.85-3.53-25.73-7.45-32.64s-9.13-10.36-15.61-10.36-11.85,3.32-16.08,9.96c-4.24,6.64-7.25,17.65-9.02,33.03h48.17Z"/><path class="cls-1" d="m851.89,232.23h-12.24c-14.54,0-26.1-1.57-34.68-4.71-8.58-3.14-15.64-7.16-21.18-12.08-7.64-6.69-13.57-15.01-17.81-24.95-4.24-9.94-6.36-21.5-6.36-34.68,0-15.69,2.54-29.08,7.61-40.17,5.07-11.09,11.74-20.24,20.01-27.46,4.92-4.39,11.14-8.11,18.67-11.14,7.53-3.03,15.9-4.86,25.11-5.49l-.16-71.55h21.03c0,3.35-.03,21.32-.08,53.9-.05,32.59-.08,55.68-.08,69.28s.02,34.58.08,62.61c.05,28.04.08,43.52.08,46.45Zm-20.87-105.13v-37.66c-5.56,0-11.1,1.05-16.61,3.14-5.51,2.09-10.31,4.97-14.4,8.63-5.88,5.33-10.55,12.42-14.01,21.26-3.46,8.84-5.19,19.85-5.19,33.03,0,10.36,1.34,19.41,4.01,27.15,2.67,7.74,6.85,14.23,12.51,19.46,3.99,3.66,8.79,6.62,14.4,8.87,5.61,2.25,11.31,3.37,17.08,3.37h2.2v-87.25Z"/><path class="cls-2" d="m880.27,214.35c-.03,11.6-.05,16.45-.05,16.79,0,.01,0,.13,0,.29,0,.14,0,.32,0,.81h12.24c14.54,0,26.1-1.57,34.68-4.71,8.58-3.14,15.64-7.16,21.18-12.08,7.64-6.69,13.57-15.01,17.81-24.95,4.24-9.94,6.36-21.5,6.36-34.68,0-15.69-2.54-29.08-7.61-40.17-5.07-11.09-11.74-20.24-20.01-27.46-4.92-4.39-11.14-8.11-18.67-11.14-7.53-3.03-15.9-4.86-25.11-5.49h-20.76v17.89s20.76,0,20.76,0c5.56,0,11.1,1.05,16.61,3.14,5.51,2.09,10.31,4.97,14.4,8.63,5.88,5.33,10.55,12.42,14.01,21.26,3.46,8.84,5.19,19.85,5.19,33.03,0,10.36-1.34,19.41-4.01,27.15-2.67,7.74-6.85,14.23-12.51,19.46-1.47,1.36-6.5,5.78-14.4,8.87-6.03,2.35-10.69,2.74-19.28,3.37-5.12.38-12.24.62-20.81,0Z"/><path class="cls-2" d="m1092.91,145.85c0,15.29-2.55,28.64-7.65,40.06-5.11,11.41-11.67,20.58-19.69,27.48-5.83,5.03-12.73,9.01-20.7,11.94-7.97,2.93-15.65,4.5-23.04,4.71l.16,71.4h-21.18c0-3.14.02-17.97.08-44.49.05-26.52.08-54.11.08-82.77s-.03-49.17-.08-64.02c-.05-14.85-.08-28.3-.08-40.33h13.94c12.32,0,23,1.52,32.04,4.56,9.03,3.04,16.37,7.02,22.01,11.94,7.52,6.6,13.42,14.82,17.7,24.66,4.28,9.84,6.42,21.47,6.42,34.87Zm-21.18.24c0-10.25-1.41-19.17-4.22-26.75-2.81-7.58-6.88-14.04-12.2-19.38-3.86-3.87-8.61-6.88-14.24-9.02-5.63-2.14-11.31-3.22-17.05-3.22h-2.19v124.43c6.26-.21,12.02-1.31,17.29-3.29,5.27-1.99,9.88-4.76,13.84-8.32,6.47-5.96,11.21-13.42,14.24-22.36,3.02-8.94,4.54-19.64,4.54-32.09Z"/><path class="cls-2" d="m1177.96,184.53c0,7.32-1.47,13.97-4.39,19.93-2.93,5.96-7.17,11.2-12.71,15.69-4.5,3.66-10.49,6.49-17.97,8.47-7.48,1.99-15.77,2.98-24.87,2.98-2.72,0-4.94-.05-6.67-.16-1.73-.11-3.01-.16-3.84-.16l-1.73-18.52c1.99.21,4.08.34,6.28.39,2.2.05,4.71.08,7.53.08,5.75,0,10.8-.5,15.14-1.49,4.34-.99,8.03-2.38,11.06-4.16,3.24-1.88,5.91-4.39,8-7.53,2.09-3.14,3.14-7.16,3.14-12.08s-.89-8.76-2.67-12.16c-1.78-3.4-4.08-6.51-6.9-9.34-1.78-1.78-4.76-4.42-8.94-7.92-4.19-3.5-8.21-6.98-12.08-10.44-4.92-4.39-8.74-9.31-11.45-14.75-2.72-5.44-4.08-11.87-4.08-19.3s1.62-13.7,4.86-19.46c3.24-5.75,7.74-10.62,13.5-14.59,5.02-3.45,11.01-5.99,17.97-7.61,6.96-1.62,13.99-2.43,21.1-2.43h6.9l1.41,18.52c-.94,0-2.33-.02-4.16-.08-1.83-.05-3.79-.08-5.88-.08-5.02,0-9.81.5-14.36,1.49-4.55,1-8.13,2.38-10.75,4.16-2.83,1.99-5.13,4.47-6.9,7.45-1.78,2.98-2.67,6.41-2.67,10.28,0,4.19.71,7.87,2.12,11.06,1.41,3.19,3.74,6.35,6.98,9.49,2.82,2.72,6.12,5.6,9.89,8.63,3.77,3.04,7.22,6.02,10.36,8.94,5.54,4.92,9.73,10.2,12.55,15.85,2.82,5.65,4.24,11.92,4.24,18.83Z"/><path class="cls-3" d="m96.12,294.38l-.57,4.02c-.15.02-.51.04-1.09.06-.58.02-1.08.03-1.5.03-4.32,0-7.59-.9-9.8-2.7-2.21-1.8-3.32-4.57-3.32-8.3,0-2.34.02-4.85.05-7.53.03-2.68.05-6,.05-9.96h-5.31v-3.7h5.6v-7.5h4.58v7.5h11.32v3.7h-11.32c0,.44-.02,1.76-.05,3.95-.03,2.19-.05,3.82-.05,4.87v7.84c0,2.74.74,4.72,2.21,5.93,1.48,1.21,3.75,1.82,6.83,1.82.38,0,.83,0,1.36-.02.53-.01.86-.02,1.01-.02Z"/><path class="cls-3" d="m122.62,270.03c-1.16.27-2.94.85-5.33,1.74-2.39.88-5.15,2.07-8.27,3.54,0,.23-.01,1.29-.03,3.18-.02,1.89-.03,3.64-.03,5.26,0,2.49.03,5.44.08,8.85.05,3.42.08,5.31.08,5.69h-5c0-.36.02-1.54.06-3.54.04-2,.06-5.43.06-10.28,0-1.96-.01-4.7-.03-8.22-.02-3.52-.05-6.84-.09-9.96h4.9v4.81l.03.03c2.38-1.35,4.73-2.52,7.05-3.51,2.32-.99,4.17-1.67,5.57-2.02l.95,4.43Z"/><path class="cls-3" d="m148.93,280.27c0,5.23-.01,9.49-.03,12.78-.02,3.29-.03,5.06-.03,5.31-.21.02-1.19.1-2.94.24-1.75.14-4.01.21-6.77.21-1.73,0-3.47-.16-5.22-.47-1.75-.32-3.26-.77-4.52-1.36-1.69-.78-3.05-1.84-4.1-3.19-1.04-1.35-1.57-2.97-1.57-4.87,0-2,.62-3.74,1.85-5.2s2.95-2.65,5.14-3.56c1.37-.57,3.2-1.08,5.49-1.53,2.29-.45,4.9-.79,7.83-1.03-.13-1.64-.54-2.99-1.23-4.05-.7-1.05-1.72-1.85-3.07-2.4-.93-.38-1.96-.65-3.1-.81s-2.47-.24-3.98-.24c-.95,0-1.75.02-2.42.06-.66.04-1.57.09-2.7.16l.51-4.21c.32-.02.94-.06,1.88-.11.94-.05,2.22-.08,3.84-.08,2.49,0,4.71.26,6.66.77,1.95.52,3.57,1.36,4.85,2.51,1.2,1.1,2.11,2.45,2.72,4.06.61,1.61.92,3.95.92,7Zm-4.84,7.62v-2.72c0-1.1-.01-2.36-.03-3.79-.93.04-2.55.23-4.87.55-2.32.33-4.27.8-5.85,1.41-1.18.44-2.23,1.11-3.15,1.99-.92.89-1.38,1.98-1.38,3.29,0,1.43.39,2.59,1.17,3.46.78.88,1.84,1.54,3.19,2.01,1.03.36,2.18.62,3.43.78,1.25.16,2.58.24,3.97.24.42,0,.94,0,1.55-.03.61-.02,1.25-.04,1.93-.06,0-.15,0-.84.02-2.09,0-1.24.02-2.92.02-5.03Z"/><path class="cls-3" d="m165.85,260.16h-5.57v-5.44h5.57v5.44Zm-.29,38.14h-5c.02-.34.05-2.41.08-6.23s.05-6.97.05-9.46c0-2.17,0-4.56-.02-7.16-.01-2.6-.05-5.66-.11-9.15h5c-.04,3.04-.08,5.88-.11,8.52-.03,2.65-.05,5-.05,7.07,0,4.91.03,8.85.08,11.83s.08,4.5.08,4.58Z"/><path class="cls-3" d="m203.7,298.3h-5c.02-.59.05-2.54.08-5.85.03-3.31.05-5.35.05-6.13,0-1.1,0-2.71-.02-4.85-.01-2.14-.03-3.71-.05-4.7-.06-2.42-.53-4.16-1.39-5.22-.86-1.05-2.36-1.58-4.49-1.58-1.29,0-2.88.38-4.77,1.14-1.9.76-3.82,1.73-5.76,2.91,0,.23-.01,1.49-.03,3.76-.02,2.28-.03,4.35-.03,6.23,0,2.45.03,5.4.08,8.85.05,3.46.08,5.27.08,5.44h-5c0-.15.02-1.44.06-3.87.04-2.43.06-6.06.06-10.86,0-2.21,0-4.81-.02-7.78s-.05-6.13-.11-9.49h4.93l-.03,3.64.03.06c2.95-1.69,5.41-2.86,7.38-3.53,1.97-.66,3.61-1,4.92-1,2.7,0,4.86.85,6.5,2.54,1.63,1.7,2.45,4.02,2.45,6.97,0,2.66-.02,4.95-.05,6.88-.03,1.93-.05,3.49-.05,4.7,0,1.92.03,4.32.08,7.19s.08,4.39.08,4.54Z"/><path class="cls-3" d="m220.72,260.16h-5.57v-5.44h5.57v5.44Zm-.29,38.14h-5c.02-.34.05-2.41.08-6.23s.05-6.97.05-9.46c0-2.17,0-4.56-.02-7.16-.01-2.6-.05-5.66-.11-9.15h5c-.04,3.04-.08,5.88-.11,8.52-.03,2.65-.05,5-.05,7.07,0,4.91.03,8.85.08,11.83s.08,4.5.08,4.58Z"/><path class="cls-3" d="m258.57,298.3h-5c.02-.59.05-2.54.08-5.85.03-3.31.05-5.35.05-6.13,0-1.1,0-2.71-.02-4.85-.01-2.14-.03-3.71-.05-4.7-.06-2.42-.53-4.16-1.39-5.22-.86-1.05-2.36-1.58-4.49-1.58-1.29,0-2.88.38-4.77,1.14-1.9.76-3.82,1.73-5.76,2.91,0,.23-.01,1.49-.03,3.76-.02,2.28-.03,4.35-.03,6.23,0,2.45.03,5.4.08,8.85.05,3.46.08,5.27.08,5.44h-5c0-.15.02-1.44.06-3.87.04-2.43.06-6.06.06-10.86,0-2.21,0-4.81-.02-7.78s-.05-6.13-.11-9.49h4.93l-.03,3.64.03.06c2.95-1.69,5.41-2.86,7.38-3.53,1.97-.66,3.61-1,4.92-1,2.7,0,4.86.85,6.5,2.54,1.63,1.7,2.45,4.02,2.45,6.97,0,2.66-.02,4.95-.05,6.88-.03,1.93-.05,3.49-.05,4.7,0,1.92.03,4.32.08,7.19s.08,4.39.08,4.54Z"/><path class="cls-3" d="m294.15,266.01c0,.46-.02,2.55-.05,6.26-.03,3.71-.05,7.24-.05,10.59,0,2.28.01,4.6.03,6.96.02,2.36.03,4.52.03,6.48,0,3.6-.62,6.43-1.85,8.47s-2.99,3.68-5.26,4.9c-1.79.93-3.97,1.66-6.55,2.2-2.57.54-5.69.81-9.36.81l-.51-4.02c2.47-.04,4.68-.17,6.64-.4,1.96-.22,3.74-.63,5.34-1.22,2.47-.93,4.18-2.16,5.16-3.68.97-1.53,1.47-3.39,1.52-5.58h-1.52c-2.51,0-5.09-.3-7.75-.9s-4.92-1.55-6.8-2.86c-1.86-1.24-3.36-2.87-4.52-4.87s-1.74-4.48-1.74-7.43.81-5.55,2.44-7.81c1.62-2.26,3.79-4.05,6.51-5.38,1.94-.95,4.05-1.61,6.34-1.98,2.29-.37,5.05-.55,8.3-.55h3.64Zm-4.84,16.81c0-1.52,0-3.41-.02-5.68-.01-2.27-.04-4.64-.08-7.11h-.82c-1.96,0-3.67.13-5.14.38-1.46.25-3.01.73-4.63,1.42-2.15.93-3.79,2.28-4.93,4.07-1.14,1.79-1.71,3.81-1.71,6.06s.56,4.29,1.69,5.94c1.13,1.64,2.64,2.92,4.54,3.82,1.29.61,2.78,1.1,4.47,1.48,1.7.38,3.49.57,5.39.57h1.17c0-.25,0-1.43.03-3.52.02-2.09.03-4.57.03-7.44Z"/><path class="cls-3" d="m349.93,282.3c0,2.45-.44,4.79-1.31,7.02-.88,2.23-2.13,4.14-3.78,5.72-1.39,1.33-2.94,2.34-4.63,3.04-1.7.7-3.62,1.04-5.77,1.04-2.02,0-3.92-.34-5.69-1.03-1.77-.69-3.35-1.69-4.74-3.02-1.6-1.54-2.84-3.44-3.72-5.69-.88-2.25-1.31-4.64-1.31-7.15s.37-4.65,1.12-6.69c.75-2.03,1.91-3.86,3.49-5.49,1.41-1.48,3.06-2.61,4.93-3.4,1.88-.79,3.86-1.19,5.95-1.19,2.19,0,4.18.36,5.96,1.09,1.78.73,3.37,1.82,4.76,3.27,1.6,1.67,2.79,3.54,3.57,5.61.78,2.08,1.17,4.36,1.17,6.85Zm-5.06.22c0-1.98-.32-3.91-.96-5.79-.64-1.88-1.64-3.46-2.99-4.74-.82-.8-1.8-1.42-2.93-1.85-1.13-.43-2.3-.65-3.53-.65-1.46,0-2.72.23-3.79.7-1.08.46-2.09,1.19-3.04,2.18-1.12,1.14-2,2.59-2.64,4.36-.64,1.77-.96,3.6-.96,5.5,0,2.15.33,4.13.98,5.93.65,1.8,1.71,3.36,3.16,4.66.82.74,1.77,1.3,2.85,1.69,1.08.39,2.21.58,3.42.58,1.33,0,2.57-.23,3.72-.7s2.16-1.14,3.02-2.02c1.2-1.22,2.12-2.7,2.75-4.43.63-1.73.95-3.54.95-5.44Z"/><path class="cls-3" d="m386.04,281.32c0,3.27-.73,6.04-2.18,8.33-1.45,2.29-3.42,4.09-5.88,5.42-2.15,1.14-4.51,1.94-7.08,2.4-2.57.46-5.02.7-7.34.7l.13,14.52h-5.03c.02-.36.05-3.27.08-8.74.03-5.47.05-10.96.05-16.46,0-2.76-.01-5.97-.03-9.63-.02-3.66-.05-7.59-.09-11.81.67-.02,1.34-.03,2.01-.03h1.53c4.43,0,7.86.23,10.31.7,2.45.46,4.67,1.29,6.67,2.47,2.13,1.24,3.8,2.9,5.03,4.98,1.22,2.08,1.83,4.46,1.83,7.16Zm-5.06.17c0-2.06-.49-3.87-1.46-5.43-.97-1.56-2.24-2.79-3.79-3.69-1.41-.8-3.02-1.38-4.82-1.75-1.8-.37-3.76-.55-5.87-.55h-1.42c0,.36-.02,1.61-.05,3.74-.03,2.14-.05,5.83-.05,11.07,0,1.1,0,2.63.02,4.61s.02,3.56.02,4.74c1.98,0,3.96-.18,5.95-.55,1.98-.37,3.62-.87,4.9-1.5,2.15-1.05,3.78-2.45,4.9-4.2s1.68-3.91,1.68-6.47Z"/><path class="cls-3" d="m419.25,281.13h-22.86c.02,2.23.5,4.28,1.42,6.15.93,1.87,2.35,3.41,4.27,4.63,1.22.78,2.61,1.37,4.17,1.75,1.56.39,3.44.58,5.63.58,1.2,0,2.3-.03,3.3-.09,1-.06,1.62-.11,1.85-.13l-.57,4.21c-.17.02-.73.06-1.68.11-.95.05-2.07.08-3.35.08-3.37,0-6.31-.44-8.81-1.31s-4.55-2.08-6.15-3.62c-1.37-1.29-2.54-2.93-3.49-4.93-.96-2-1.44-4.23-1.44-6.67s.36-4.57,1.08-6.51c.72-1.94,1.79-3.74,3.23-5.41,1.24-1.43,2.79-2.54,4.63-3.32s3.76-1.17,5.74-1.17,3.7.29,5.22.88c1.52.59,2.84,1.49,3.95,2.69,1.24,1.35,2.19,3.01,2.85,4.98.65,1.97.99,4.34,1.01,7.1Zm-4.9-3.54c-.34-2.61-1.23-4.66-2.67-6.15s-3.35-2.23-5.71-2.23-4.33.75-5.91,2.26c-1.58,1.51-2.68,3.55-3.29,6.12h17.58Z"/><path class="cls-3" d="m446.09,270.03c-1.16.27-2.94.85-5.33,1.74-2.39.88-5.15,2.07-8.27,3.54,0,.23-.01,1.29-.03,3.18-.02,1.89-.03,3.64-.03,5.26,0,2.49.03,5.44.08,8.85.05,3.42.08,5.31.08,5.69h-5c0-.36.02-1.54.06-3.54.04-2,.06-5.43.06-10.28,0-1.96-.01-4.7-.03-8.22-.02-3.52-.05-6.84-.09-9.96h4.9v4.81l.03.03c2.38-1.35,4.73-2.52,7.05-3.51,2.32-.99,4.17-1.67,5.57-2.02l.95,4.43Z"/><path class="cls-3" d="m472.4,280.27c0,5.23-.01,9.49-.03,12.78-.02,3.29-.03,5.06-.03,5.31-.21.02-1.19.1-2.94.24-1.75.14-4.01.21-6.77.21-1.73,0-3.47-.16-5.22-.47-1.75-.32-3.26-.77-4.52-1.36-1.69-.78-3.05-1.84-4.1-3.19-1.04-1.35-1.57-2.97-1.57-4.87,0-2,.62-3.74,1.85-5.2s2.95-2.65,5.14-3.56c1.37-.57,3.2-1.08,5.49-1.53,2.29-.45,4.9-.79,7.83-1.03-.13-1.64-.54-2.99-1.23-4.05-.7-1.05-1.72-1.85-3.07-2.4-.93-.38-1.96-.65-3.1-.81s-2.47-.24-3.98-.24c-.95,0-1.75.02-2.42.06-.66.04-1.57.09-2.7.16l.51-4.21c.32-.02.94-.06,1.88-.11.94-.05,2.22-.08,3.84-.08,2.49,0,4.71.26,6.66.77,1.95.52,3.57,1.36,4.85,2.51,1.2,1.1,2.11,2.45,2.72,4.06.61,1.61.92,3.95.92,7Zm-4.84,7.62v-2.72c0-1.1-.01-2.36-.03-3.79-.93.04-2.55.23-4.87.55-2.32.33-4.27.8-5.85,1.41-1.18.44-2.23,1.11-3.15,1.99-.92.89-1.38,1.98-1.38,3.29,0,1.43.39,2.59,1.17,3.46.78.88,1.84,1.54,3.19,2.01,1.03.36,2.18.62,3.43.78,1.25.16,2.58.24,3.97.24.42,0,.94,0,1.55-.03.61-.02,1.25-.04,1.93-.06,0-.15,0-.84.02-2.09,0-1.24.02-2.92.02-5.03Z"/><path class="cls-3" d="m500.96,294.38l-.57,4.02c-.15.02-.51.04-1.09.06-.58.02-1.08.03-1.5.03-4.32,0-7.59-.9-9.8-2.7-2.21-1.8-3.32-4.57-3.32-8.3,0-2.34.02-4.85.05-7.53.03-2.68.05-6,.05-9.96h-5.31v-3.7h5.6v-7.5h4.58v7.5h11.32v3.7h-11.32c0,.44-.02,1.76-.05,3.95-.03,2.19-.05,3.82-.05,4.87v7.84c0,2.74.74,4.72,2.21,5.93,1.48,1.21,3.75,1.82,6.83,1.82.38,0,.83,0,1.36-.02.53-.01.86-.02,1.01-.02Z"/><path class="cls-3" d="m514.59,260.16h-5.57v-5.44h5.57v5.44Zm-.29,38.14h-5c.02-.34.05-2.41.08-6.23s.05-6.97.05-9.46c0-2.17,0-4.56-.02-7.16-.01-2.6-.05-5.66-.11-9.15h5c-.04,3.04-.08,5.88-.11,8.52-.03,2.65-.05,5-.05,7.07,0,4.91.03,8.85.08,11.83s.08,4.5.08,4.58Z"/><path class="cls-3" d="m554.31,282.3c0,2.45-.44,4.79-1.31,7.02-.88,2.23-2.13,4.14-3.78,5.72-1.39,1.33-2.94,2.34-4.63,3.04-1.7.7-3.62,1.04-5.77,1.04-2.02,0-3.92-.34-5.69-1.03-1.77-.69-3.35-1.69-4.74-3.02-1.6-1.54-2.84-3.44-3.72-5.69-.88-2.25-1.31-4.64-1.31-7.15s.37-4.65,1.12-6.69c.75-2.03,1.91-3.86,3.49-5.49,1.41-1.48,3.06-2.61,4.93-3.4,1.88-.79,3.86-1.19,5.95-1.19,2.19,0,4.18.36,5.96,1.09,1.78.73,3.37,1.82,4.76,3.27,1.6,1.67,2.79,3.54,3.57,5.61.78,2.08,1.17,4.36,1.17,6.85Zm-5.06.22c0-1.98-.32-3.91-.96-5.79-.64-1.88-1.64-3.46-2.99-4.74-.82-.8-1.8-1.42-2.93-1.85-1.13-.43-2.3-.65-3.53-.65-1.46,0-2.72.23-3.79.7-1.08.46-2.09,1.19-3.04,2.18-1.12,1.14-2,2.59-2.64,4.36-.64,1.77-.96,3.6-.96,5.5,0,2.15.33,4.13.98,5.93.65,1.8,1.71,3.36,3.16,4.66.82.74,1.77,1.3,2.85,1.69,1.08.39,2.21.58,3.42.58,1.33,0,2.57-.23,3.72-.7s2.16-1.14,3.02-2.02c1.2-1.22,2.12-2.7,2.75-4.43.63-1.73.95-3.54.95-5.44Z"/><path class="cls-3" d="m589.28,298.3h-5c.02-.59.05-2.54.08-5.85.03-3.31.05-5.35.05-6.13,0-1.1,0-2.71-.02-4.85-.01-2.14-.03-3.71-.05-4.7-.06-2.42-.53-4.16-1.39-5.22-.86-1.05-2.36-1.58-4.49-1.58-1.29,0-2.88.38-4.77,1.14-1.9.76-3.82,1.73-5.76,2.91,0,.23-.01,1.49-.03,3.76-.02,2.28-.03,4.35-.03,6.23,0,2.45.03,5.4.08,8.85.05,3.46.08,5.27.08,5.44h-5c0-.15.02-1.44.06-3.87.04-2.43.06-6.06.06-10.86,0-2.21,0-4.81-.02-7.78s-.05-6.13-.11-9.49h4.93l-.03,3.64.03.06c2.95-1.69,5.41-2.86,7.38-3.53,1.97-.66,3.61-1,4.92-1,2.7,0,4.86.85,6.5,2.54,1.63,1.7,2.45,4.02,2.45,6.97,0,2.66-.02,4.95-.05,6.88-.03,1.93-.05,3.49-.05,4.7,0,1.92.03,4.32.08,7.19s.08,4.39.08,4.54Z"/><path class="cls-3" d="m618.09,289.03c0,1.56-.38,2.95-1.14,4.17-.76,1.22-1.75,2.21-2.98,2.97-1.29.8-2.81,1.41-4.58,1.82s-3.71.62-5.84.62c-1.03,0-2.11-.05-3.21-.14s-1.74-.15-1.88-.17l-.19-4.14c.19.02.92.08,2.2.17s2.55.14,3.81.14c.74,0,1.69-.06,2.85-.19,1.16-.13,2.12-.36,2.88-.7,1.05-.46,1.83-1.03,2.34-1.71.51-.67.76-1.49.76-2.43,0-.86-.22-1.57-.66-2.1-.44-.54-1.05-1.06-1.83-1.57-.84-.57-2-1.17-3.46-1.82-1.47-.64-2.69-1.26-3.68-1.85-1.41-.86-2.49-1.89-3.24-3.07-.75-1.18-1.12-2.55-1.12-4.11s.43-2.96,1.28-4.21,2-2.25,3.44-3c1.25-.67,2.62-1.12,4.13-1.34,1.51-.22,2.97-.33,4.39-.33,1.29,0,2.34.02,3.17.06.82.04,1.3.06,1.43.06l.35,4.21c-.15,0-.8-.04-1.95-.13-1.15-.08-2.41-.13-3.79-.13-.97,0-1.9.08-2.77.25s-1.62.41-2.23.73c-.91.46-1.56,1.02-1.95,1.68-.39.65-.59,1.29-.59,1.9,0,.84.27,1.57.82,2.18s1.19,1.13,1.93,1.55c.87.51,2.05,1.11,3.55,1.8,1.5.7,2.59,1.25,3.26,1.68,1.48.93,2.6,1.96,3.38,3.1.77,1.14,1.16,2.49,1.16,4.05Z"/><path class="cls-3" d="m660.62,289.03c0,1.56-.38,2.95-1.14,4.17-.76,1.22-1.75,2.21-2.98,2.97-1.29.8-2.81,1.41-4.58,1.82s-3.71.62-5.84.62c-1.03,0-2.11-.05-3.21-.14s-1.74-.15-1.88-.17l-.19-4.14c.19.02.92.08,2.2.17s2.55.14,3.81.14c.74,0,1.69-.06,2.85-.19,1.16-.13,2.12-.36,2.88-.7,1.05-.46,1.83-1.03,2.34-1.71.51-.67.76-1.49.76-2.43,0-.86-.22-1.57-.66-2.1-.44-.54-1.05-1.06-1.83-1.57-.84-.57-2-1.17-3.46-1.82-1.47-.64-2.69-1.26-3.68-1.85-1.41-.86-2.49-1.89-3.24-3.07-.75-1.18-1.12-2.55-1.12-4.11s.43-2.96,1.28-4.21,2-2.25,3.44-3c1.25-.67,2.62-1.12,4.13-1.34,1.51-.22,2.97-.33,4.39-.33,1.29,0,2.34.02,3.17.06.82.04,1.3.06,1.43.06l.35,4.21c-.15,0-.8-.04-1.95-.13-1.15-.08-2.41-.13-3.79-.13-.97,0-1.9.08-2.77.25s-1.62.41-2.23.73c-.91.46-1.56,1.02-1.95,1.68-.39.65-.59,1.29-.59,1.9,0,.84.27,1.57.82,2.18s1.19,1.13,1.93,1.55c.87.51,2.05,1.11,3.55,1.8,1.5.7,2.59,1.25,3.26,1.68,1.48.93,2.6,1.96,3.38,3.1.77,1.14,1.16,2.49,1.16,4.05Z"/><path class="cls-3" d="m686.3,294.38l-.57,4.02c-.15.02-.51.04-1.09.06-.58.02-1.08.03-1.5.03-4.32,0-7.59-.9-9.8-2.7-2.21-1.8-3.32-4.57-3.32-8.3,0-2.34.02-4.85.05-7.53.03-2.68.05-6,.05-9.96h-5.31v-3.7h5.6v-7.5h4.58v7.5h11.32v3.7h-11.32c0,.44-.02,1.76-.05,3.95-.03,2.19-.05,3.82-.05,4.87v7.84c0,2.74.74,4.72,2.21,5.93,1.48,1.21,3.75,1.82,6.83,1.82.38,0,.83,0,1.36-.02.53-.01.86-.02,1.01-.02Z"/><path class="cls-3" d="m712.8,270.03c-1.16.27-2.94.85-5.33,1.74-2.39.88-5.15,2.07-8.27,3.54,0,.23-.01,1.29-.03,3.18-.02,1.89-.03,3.64-.03,5.26,0,2.49.03,5.44.08,8.85.05,3.42.08,5.31.08,5.69h-5c0-.36.02-1.54.06-3.54.04-2,.06-5.43.06-10.28,0-1.96-.01-4.7-.03-8.22-.02-3.52-.05-6.84-.09-9.96h4.9v4.81l.03.03c2.38-1.35,4.73-2.52,7.05-3.51,2.32-.99,4.17-1.67,5.57-2.02l.95,4.43Z"/><path class="cls-3" d="m743.16,281.13h-22.86c.02,2.23.5,4.28,1.42,6.15.93,1.87,2.35,3.41,4.27,4.63,1.22.78,2.61,1.37,4.17,1.75,1.56.39,3.44.58,5.63.58,1.2,0,2.3-.03,3.3-.09,1-.06,1.62-.11,1.85-.13l-.57,4.21c-.17.02-.73.06-1.68.11-.95.05-2.07.08-3.35.08-3.37,0-6.31-.44-8.81-1.31s-4.55-2.08-6.15-3.62c-1.37-1.29-2.54-2.93-3.49-4.93-.96-2-1.44-4.23-1.44-6.67s.36-4.57,1.08-6.51c.72-1.94,1.79-3.74,3.23-5.41,1.24-1.43,2.79-2.54,4.63-3.32s3.76-1.17,5.74-1.17,3.7.29,5.22.88c1.52.59,2.84,1.49,3.95,2.69,1.24,1.35,2.19,3.01,2.85,4.98.65,1.97.99,4.34,1.01,7.1Zm-4.9-3.54c-.34-2.61-1.23-4.66-2.67-6.15s-3.35-2.23-5.71-2.23-4.33.75-5.91,2.26c-1.58,1.51-2.68,3.55-3.29,6.12h17.58Z"/><path class="cls-3" d="m773.48,280.27c0,5.23-.01,9.49-.03,12.78-.02,3.29-.03,5.06-.03,5.31-.21.02-1.19.1-2.94.24-1.75.14-4.01.21-6.77.21-1.73,0-3.47-.16-5.22-.47-1.75-.32-3.26-.77-4.52-1.36-1.69-.78-3.05-1.84-4.1-3.19-1.04-1.35-1.57-2.97-1.57-4.87,0-2,.62-3.74,1.85-5.2s2.95-2.65,5.14-3.56c1.37-.57,3.2-1.08,5.49-1.53,2.29-.45,4.9-.79,7.83-1.03-.13-1.64-.54-2.99-1.23-4.05-.7-1.05-1.72-1.85-3.07-2.4-.93-.38-1.96-.65-3.1-.81s-2.47-.24-3.98-.24c-.95,0-1.75.02-2.42.06-.66.04-1.57.09-2.7.16l.51-4.21c.32-.02.94-.06,1.88-.11.94-.05,2.22-.08,3.84-.08,2.49,0,4.71.26,6.66.77,1.95.52,3.57,1.36,4.85,2.51,1.2,1.1,2.11,2.45,2.72,4.06.61,1.61.92,3.95.92,7Zm-4.84,7.62v-2.72c0-1.1-.01-2.36-.03-3.79-.93.04-2.55.23-4.87.55-2.32.33-4.27.8-5.85,1.41-1.18.44-2.23,1.11-3.15,1.99-.92.89-1.38,1.98-1.38,3.29,0,1.43.39,2.59,1.17,3.46.78.88,1.84,1.54,3.19,2.01,1.03.36,2.18.62,3.43.78,1.25.16,2.58.24,3.97.24.42,0,.94,0,1.55-.03.61-.02,1.25-.04,1.93-.06,0-.15,0-.84.02-2.09,0-1.24.02-2.92.02-5.03Z"/><path class="cls-3" d="m830.12,298.3h-5c.02-.23.05-1.71.08-4.43.03-2.72.05-5.28.05-7.68,0-.95,0-2.5-.02-4.67-.01-2.16-.03-3.78-.05-4.85-.06-2.53-.56-4.28-1.5-5.25-.94-.97-2.39-1.45-4.35-1.45-1.16,0-2.54.29-4.13.86s-3.39,1.47-5.39,2.68c0,.11,0,.32.02.63,0,.32.02.73.02,1.23,0,1.71-.01,3.44-.03,5.2-.02,1.76-.03,3.44-.03,5.04,0,3.5.03,6.43.08,8.81.05,2.38.08,3.67.08,3.88h-5c0-.23.02-1.51.06-3.83s.06-5.06.06-8.22c0-1.05,0-2.65-.02-4.79s-.03-3.72-.05-4.73c-.02-.93-.11-1.81-.25-2.66-.15-.84-.42-1.56-.82-2.15-.44-.65-1.01-1.14-1.71-1.47-.7-.33-1.69-.49-2.97-.49-1.18,0-2.56.34-4.14,1.04-1.58.69-3.39,1.68-5.44,2.98,0,.36-.01,1.7-.03,4.03-.02,2.33-.03,4.23-.03,5.7,0,2.51.03,5.51.08,9.02.05,3.51.08,5.36.08,5.57h-5c0-.17.02-1.4.06-3.68.04-2.29.06-6.08.06-11.37,0-1.73,0-4.06-.02-6.99s-.05-6.25-.11-9.96h4.93l-.03,3.64.03.03c1.41-1.01,3.19-2.01,5.33-3,2.14-.99,4.03-1.49,5.68-1.49,2.07,0,3.79.43,5.17,1.3,1.38.87,2.37,1.96,2.96,3.29h.06c2.42-1.5,4.65-2.63,6.69-3.42,2.03-.78,3.77-1.17,5.2-1.17,2.91,0,5.18.85,6.81,2.54,1.63,1.7,2.45,3.99,2.45,6.88,0,2.24-.02,4.12-.05,5.65-.03,1.53-.05,3.15-.05,4.85,0,3.54.03,6.54.08,8.98.05,2.45.08,3.75.08,3.92Z"/><path class="cls-3" d="m846.85,298.3h-5c.02-.25.05-3.34.08-9.25.03-5.91.05-10.82.05-14.72,0-2.51,0-5.68-.02-9.5s-.05-8.12-.11-12.89h5c-.04,3.25-.07,7-.09,11.27-.02,4.27-.03,7.87-.03,10.8,0,6.39.02,11.97.06,16.76.04,4.79.06,7.29.06,7.53Z"/><path class="cls-3" d="m864.4,260.16h-5.57v-5.44h5.57v5.44Zm-.29,38.14h-5c.02-.34.05-2.41.08-6.23s.05-6.97.05-9.46c0-2.17,0-4.56-.02-7.16-.01-2.6-.05-5.66-.11-9.15h5c-.04,3.04-.08,5.88-.11,8.52-.03,2.65-.05,5-.05,7.07,0,4.91.03,8.85.08,11.83s.08,4.5.08,4.58Z"/><path class="cls-3" d="m902.25,298.3h-5c.02-.59.05-2.54.08-5.85.03-3.31.05-5.35.05-6.13,0-1.1,0-2.71-.02-4.85-.01-2.14-.03-3.71-.05-4.7-.06-2.42-.53-4.16-1.39-5.22-.86-1.05-2.36-1.58-4.49-1.58-1.29,0-2.88.38-4.77,1.14-1.9.76-3.82,1.73-5.76,2.91,0,.23-.01,1.49-.03,3.76-.02,2.28-.03,4.35-.03,6.23,0,2.45.03,5.4.08,8.85.05,3.46.08,5.27.08,5.44h-5c0-.15.02-1.44.06-3.87.04-2.43.06-6.06.06-10.86,0-2.21,0-4.81-.02-7.78s-.05-6.13-.11-9.49h4.93l-.03,3.64.03.06c2.95-1.69,5.41-2.86,7.38-3.53,1.97-.66,3.61-1,4.92-1,2.7,0,4.86.85,6.5,2.54,1.63,1.7,2.45,4.02,2.45,6.97,0,2.66-.02,4.95-.05,6.88-.03,1.93-.05,3.49-.05,4.7,0,1.92.03,4.32.08,7.19s.08,4.39.08,4.54Z"/><path class="cls-3" d="m938.3,281.13h-22.86c.02,2.23.5,4.28,1.42,6.15.93,1.87,2.35,3.41,4.27,4.63,1.22.78,2.61,1.37,4.17,1.75,1.56.39,3.44.58,5.63.58,1.2,0,2.3-.03,3.3-.09,1-.06,1.62-.11,1.85-.13l-.57,4.21c-.17.02-.73.06-1.68.11-.95.05-2.07.08-3.35.08-3.37,0-6.31-.44-8.81-1.31s-4.55-2.08-6.15-3.62c-1.37-1.29-2.54-2.93-3.49-4.93-.96-2-1.44-4.23-1.44-6.67s.36-4.57,1.08-6.51c.72-1.94,1.79-3.74,3.23-5.41,1.24-1.43,2.79-2.54,4.63-3.32s3.76-1.17,5.74-1.17,3.7.29,5.22.88c1.52.59,2.84,1.49,3.95,2.69,1.24,1.35,2.19,3.01,2.85,4.98.65,1.97.99,4.34,1.01,7.1Zm-4.9-3.54c-.34-2.61-1.23-4.66-2.67-6.15s-3.35-2.23-5.71-2.23-4.33.75-5.91,2.26c-1.58,1.51-2.68,3.55-3.29,6.12h17.58Z"/><path class="cls-3" d="m970.97,298.77c-.13,0-.53,0-1.2.02s-1.21.02-1.61.02c-3.99,0-7.11-.17-9.36-.52-2.26-.35-4.46-1.04-6.61-2.07-2.8-1.35-4.93-3.14-6.39-5.37-1.46-2.23-2.18-4.72-2.18-7.46,0-3.2.81-6.04,2.44-8.51,1.62-2.47,3.96-4.41,7.02-5.8,1.79-.84,3.85-1.48,6.17-1.91,2.32-.43,4.6-.65,6.83-.65l-.09-14.58h5c0,.42-.02,3.37-.06,8.85-.04,5.48-.06,11.03-.06,16.65,0,4.45.02,8.46.05,12.06.03,3.59.06,6.68.08,9.28Zm-4.9-22.21v-5.84c-2.11,0-4.09.18-5.96.54-1.87.36-3.46.84-4.79,1.45-2.11.97-3.74,2.35-4.9,4.15s-1.74,3.91-1.74,6.33c0,2.17.56,4.03,1.68,5.59,1.12,1.56,2.51,2.78,4.17,3.66,1.46.78,3.09,1.36,4.92,1.75,1.82.39,3.74.58,5.74.58h.82c0-.19,0-1.76.03-4.72.02-2.96.03-7.46.03-13.5Z"/></g></svg>