<?xml version="1.0" encoding="utf-8"?>
<!-- Generator: Adobe Illustrator 27.4.0, SVG Export Plug-In . SVG Version: 6.00 Build 0)  -->
<svg version="1.1" id="Layer_2_00000042737539321486044160000002550894259400805558_"
	 xmlns="http://www.w3.org/2000/svg" xmlns:xlink="http://www.w3.org/1999/xlink" x="0px" y="0px" viewBox="0 0 1178 312.7"
	 style="enable-background:new 0 0 1178 312.7;" xml:space="preserve">
<style type="text/css">
	.st0{fill:#FFFFFF;}
</style>
<g id="Layer_1-2">
	<path class="st0" d="M89.6,172.8c0,10.6-2,19.6-6.1,27.1c-4.1,7.5-9.3,13.7-15.5,18.5c-6,4.6-13,8.1-21.3,10.6
		c-8.2,2.5-16.2,3.7-24.1,3.8c-4.7,0.1-8.9,0-12.6-0.3s-6.4-0.7-8.2-1.1L0,211.5c2.2,0.4,5.1,0.8,8.8,1.2c3.7,0.4,9.1,0.6,16.3,0.6
		c5.8,0,11.4-0.9,17-2.7c5.5-1.8,10.1-4.3,13.6-7.5c3.7-3.4,6.5-7.3,8.6-11.9s3.1-10.1,3.1-16.7s-1.2-12.2-3.8-17.3
		s-5.8-9.6-9.7-13.4c-2.7-2.6-6.9-6.3-12.6-11.1c-5.7-4.8-10.4-8.7-14-11.7c-6.9-5.8-12.7-12.5-17.3-20.2S3.1,84.2,3.1,73.9
		c0-8.6,1.5-16.1,4.6-22.5c3.1-6.4,7.1-12.1,12.2-17c5.2-5.1,12.1-9.2,20.6-12.2c8.5-3,16.3-4.5,23.3-4.6c5.3-0.1,9.3-0.1,11.9,0.1
		c2.6,0.2,5,0.3,7.1,0.5L84.7,38c-1.6-0.1-3.7-0.3-6.5-0.5c-2.8-0.3-7.3-0.3-13.6-0.2c-5.3,0.1-10.5,0.9-15.5,2.4
		c-5,1.5-9.4,4.1-13.4,7.6c-2.9,2.6-5.4,6-7.5,10.3s-3.1,8.9-3.1,13.9c0,7.1,1.5,13.2,4.5,18.1c3,5,6.4,9.2,10.1,12.8
		c3,2.8,6.6,5.9,10.8,9.3c4.2,3.3,9,7.2,14.4,11.6c7.2,5.9,13.1,12.7,17.7,20.6C87.3,151.7,89.6,161.3,89.6,172.8L89.6,172.8z"/>
	<path class="st0" d="M173.4,211.8l-2,18.4c-0.8,0.1-1.9,0.2-3.1,0.2c-1.2,0.1-2.6,0.1-4.3,0.1c-13.9,0-25.3-3.6-34.1-10.9
		c-8.8-7.3-13.2-21.3-13.2-42.1c0-14.3,0-29.6,0.1-45.7c0.1-16.2,0.1-30.7,0.1-43.7H99.5V71.2h17.6V34.8h20.7v36.4h34.4V88h-34.4
		c0,2.9,0,9.8-0.1,20.5s-0.1,18.5-0.1,23.5c0,4.2,0,9.2,0.1,15c0.1,5.8,0.1,15.8,0.1,29.9s2.7,24,8,28.4s12.4,6.6,21,6.6
		L173.4,211.8L173.4,211.8z"/>
	<path class="st0" d="M261.9,88.2c-4.6,1.8-11,4.7-19.3,8.7c-8.3,4-18.6,9.8-31.1,17.6c0,2.9,0,8.2-0.1,15.9s-0.1,16.5-0.1,26.6
		c0,12.5,0,26.9,0.1,43.4c0.1,16.5,0.1,26.4,0.1,29.8h-21c0-4.2,0-14.8,0.1-31.9c0.1-17.1,0.1-35.1,0.1-53.9c0-13.9,0-26.2-0.1-36.9
		s-0.1-22.7-0.1-36.1h21l-0.2,25.3l0.3,0.2c11.8-9.4,21.5-16.3,29-20.6s12.7-7.2,15.4-8.6L261.9,88.2L261.9,88.2z"/>
	<path class="st0" d="M348.7,144.2h-68.6c0,12.4,1,22.9,3.1,31.3c2.1,8.4,5.5,15.4,10.2,20.9c4.7,5.4,10,9.4,16,11.9s13,3.8,21,3.8
		c3.7,0,6.4-0.1,8.2-0.2c1.8-0.1,3.2-0.2,4.4-0.3l-2.5,18.5c-1.3,0.1-2.5,0.2-3.8,0.3c-1.3,0.1-4.2,0.2-8.8,0.2
		c-12.2-0.1-22.7-2.3-31.4-6.6s-15.8-10.3-21.2-18c-5.2-7.5-9.2-16.3-12-26.3c-2.8-10-4.2-20.4-4.2-31.1c0-12.7,0.9-23.5,2.7-32.5
		s5.2-17.8,10.4-26.5c4.5-7.6,9.6-13.2,15.4-16.8c5.8-3.6,12.1-5.3,19.1-5.3c6.5,0,12.3,1.5,17.4,4.5c5.1,3,9.5,7.3,13.2,13.1
		c4,6.8,6.8,15.1,8.5,24.8C347.7,119.6,348.6,131,348.7,144.2L348.7,144.2z M328.6,127.9c-1-14.8-3.5-25.7-7.5-32.6
		s-9.1-10.4-15.6-10.4s-11.9,3.3-16.1,10c-4.2,6.6-7.2,17.7-9,33L328.6,127.9L328.6,127.9z"/>
	<path class="st0" d="M443.1,139v91c-2.9,0.5-6.4,1-10.4,1.3c-4,0.4-8.7,0.6-14.3,0.6c-7.6,0-14.6-0.8-20.8-2.4s-12.1-4.2-17.5-7.6
		c-5.8-3.7-10.4-8.8-14-15.3c-3.6-6.5-5.3-14-5.3-22.4c0-9.3,2.1-17.3,6.3-23.9c4.2-6.6,9.7-12.3,16.6-16.9
		c3.6-2.4,8.7-4.9,15.5-7.5c6.8-2.6,14.5-4.7,23.1-6.3c-0.2-9.1-1.2-16.3-3.1-21.5c-1.8-5.2-4.8-9.5-9-12.7c-4-3-8.6-5-14-5.8
		c-5.3-0.8-10.9-1.3-16.6-1.3c-1.6,0-2.9,0-3.8,0.1c-1,0.1-2,0.1-3.1,0.1l2.2-18.5c1-0.1,2.3-0.2,3.8-0.2c1.5-0.1,3.9-0.1,7.2-0.1
		c11,0,20.3,1.6,27.9,4.9c7.6,3.2,13.8,8.2,18.6,14.8c4.2,5.8,7,12.2,8.5,19.4S443.2,125.9,443.1,139L443.1,139z M422.4,181.2v-34
		c-3.6,0.5-8,1.7-13.3,3.5c-5.3,1.8-9.9,4-13.8,6.6c-3.8,2.5-6.9,6.2-9.3,11.1c-2.4,4.9-3.6,10.1-3.6,15.5s1.1,10.6,3.2,15
		c2.1,4.4,4.7,7.6,7.8,9.7c3,2.1,6.4,3.7,10,4.8s7.5,1.6,11.6,1.6h3.4c1.2,0,2.5-0.1,4-0.3L422.4,181.2L422.4,181.2z"/>
	<path class="st0" d="M630.8,230h-21c0-2.9,0-12.4,0.1-28.4c0-16,0.1-27.6,0.1-34.7c0-10,0-19.8-0.1-29.3c0-9.5-0.1-15.3-0.1-17.3
		c0-13.1-1-21.9-3.1-26.6c-2-4.7-6.2-7-12.5-7c-4.1,0-8.9,1.7-14.6,4.9c-5.7,3.3-10.8,6.9-15.4,10.8v6.3c0,7.8,0,16.6-0.1,26.2
		s-0.1,17.5-0.1,23.5c0,7.1,0,20,0.1,38.8c0,18.7,0.1,29.7,0.1,32.8h-21c0-2.1,0-11.4,0.1-27.8c0-16.4,0.1-28.2,0.1-35.3
		c0-10,0-19.8-0.1-29.3s-0.1-15.3-0.1-17.3c0-5.5-0.2-10.3-0.5-14.4s-0.8-7.3-1.4-9.8c-0.9-3.4-2.5-5.9-4.5-7.3
		c-2.1-1.4-4.9-2.1-8.5-2.1c-4.1,0-9.1,1.8-15,5.3c-5.9,3.6-11.2,7.3-15.8,11.1v58.7c0,11.6,0,25.2,0.1,40.9
		c0,15.6,0.1,24.7,0.1,27.2h-21c0-4,0-11.2,0.1-21.6c0-10.5,0.1-30.2,0.1-59.3c0-26.3,0-43.2-0.1-50.8c0-7.6-0.1-16.6-0.1-27.1h21
		l-0.2,13.7l0.3,0.2c6.1-4.7,12.5-8.8,19.3-12.3c6.8-3.5,13.3-5.3,19.6-5.3s11.4,1.5,15.7,4.6s7.4,7.8,9.3,14h0.5
		c7.2-5.5,14.2-10,20.8-13.5c6.6-3.4,13.2-5.2,19.7-5.2c9.3,0,16.3,3.5,21,10.6c4.7,7.1,7,16.3,7,27.7v52.7c0,7.1,0,20.1,0.1,39.1
		C630.8,216.5,630.8,227.3,630.8,230L630.8,230z"/>
	<path class="st0" d="M746.1,144.2h-68.6c0,12.4,1,22.9,3.1,31.3c2.1,8.4,5.5,15.4,10.2,20.9c4.7,5.4,10,9.4,16,11.9s13,3.8,21,3.8
		c3.7,0,6.4-0.1,8.2-0.2c1.8-0.1,3.2-0.2,4.4-0.3l-2.5,18.5c-1.3,0.1-2.5,0.2-3.8,0.3c-1.3,0.1-4.2,0.2-8.8,0.2
		c-12.2-0.1-22.7-2.3-31.4-6.6s-15.8-10.3-21.2-18c-5.2-7.5-9.2-16.3-12-26.3c-2.8-10-4.2-20.4-4.2-31.1c0-12.7,0.9-23.5,2.7-32.5
		c1.8-9,5.2-17.8,10.4-26.5c4.5-7.6,9.6-13.2,15.4-16.8c5.8-3.6,12.1-5.3,19.1-5.3c6.5,0,12.3,1.5,17.4,4.5c5.1,3,9.5,7.3,13.2,13.1
		c4,6.8,6.8,15.1,8.5,24.8C745.1,119.6,746,131,746.1,144.2L746.1,144.2z M726,127.9c-1-14.8-3.5-25.7-7.5-32.6s-9.1-10.4-15.6-10.4
		s-11.8,3.3-16.1,10c-4.2,6.6-7.2,17.7-9,33L726,127.9L726,127.9z"/>
	<path class="st0" d="M851.9,232.2h-12.2c-14.5,0-26.1-1.6-34.7-4.7s-15.6-7.2-21.2-12.1c-7.6-6.7-13.6-15-17.8-24.9
		s-6.4-21.5-6.4-34.7c0-15.7,2.5-29.1,7.6-40.2s11.7-20.2,20-27.5c4.9-4.4,11.1-8.1,18.7-11.1c7.5-3,15.9-4.9,25.1-5.5L830.9,0h21
		c0,3.3,0,21.3-0.1,53.9c0,32.6-0.1,55.7-0.1,69.3s0,34.6,0.1,62.6C851.9,213.8,851.9,229.3,851.9,232.2L851.9,232.2z M831,127.1
		V89.4c-5.6,0-11.1,1.1-16.6,3.1s-10.3,5-14.4,8.6c-5.9,5.3-10.5,12.4-14,21.3s-5.2,19.9-5.2,33c0,10.4,1.3,19.4,4,27.1
		c2.7,7.7,6.8,14.2,12.5,19.5c4,3.7,8.8,6.6,14.4,8.9c5.6,2.2,11.3,3.4,17.1,3.4h2.2L831,127.1L831,127.1z"/>
	<path class="st0" d="M880.3,214.4c0,11.6,0,16.4,0,16.8c0,0,0,0.1,0,0.3c0,0.1,0,0.3,0,0.8h12.2c14.5,0,26.1-1.6,34.7-4.7
		s15.6-7.2,21.2-12.1c7.6-6.7,13.6-15,17.8-24.9s6.4-21.5,6.4-34.7c0-15.7-2.5-29.1-7.6-40.2s-11.7-20.2-20-27.5
		c-4.9-4.4-11.1-8.1-18.7-11.1c-7.5-3-15.9-4.9-25.1-5.5h-20.8v17.9h20.8c5.6,0,11.1,1.1,16.6,3.1s10.3,5,14.4,8.6
		c5.9,5.3,10.5,12.4,14,21.3s5.2,19.9,5.2,33c0,10.4-1.3,19.4-4,27.1c-2.7,7.7-6.8,14.2-12.5,19.5c-1.5,1.4-6.5,5.8-14.4,8.9
		c-6,2.4-10.7,2.7-19.3,3.4C896,214.7,888.9,215,880.3,214.4L880.3,214.4z"/>
	<path class="st0" d="M1092.9,145.9c0,15.3-2.6,28.6-7.7,40.1c-5.1,11.4-11.7,20.6-19.7,27.5c-5.8,5-12.7,9-20.7,11.9
		c-8,2.9-15.7,4.5-23,4.7l0.2,71.4h-21.2c0-3.1,0-18,0.1-44.5c0-26.5,0.1-54.1,0.1-82.8s0-49.2-0.1-64s-0.1-28.3-0.1-40.3h13.9
		c12.3,0,23,1.5,32,4.6c9,3,16.4,7,22,11.9c7.5,6.6,13.4,14.8,17.7,24.7C1090.8,120.8,1092.9,132.5,1092.9,145.9L1092.9,145.9z
		 M1071.7,146.1c0-10.2-1.4-19.2-4.2-26.8c-2.8-7.6-6.9-14-12.2-19.4c-3.9-3.9-8.6-6.9-14.2-9s-11.3-3.2-17.1-3.2h-2.2v124.4
		c6.3-0.2,12-1.3,17.3-3.3c5.3-2,9.9-4.8,13.8-8.3c6.5-6,11.2-13.4,14.2-22.4C1070.2,169.2,1071.7,158.5,1071.7,146.1L1071.7,146.1z
		"/>
	<path class="st0" d="M1178,184.5c0,7.3-1.5,14-4.4,19.9c-2.9,6-7.2,11.2-12.7,15.7c-4.5,3.7-10.5,6.5-18,8.5c-7.5,2-15.8,3-24.9,3
		c-2.7,0-4.9-0.1-6.7-0.2c-1.7-0.1-3-0.2-3.8-0.2l-1.7-18.5c2,0.2,4.1,0.3,6.3,0.4c2.2,0.1,4.7,0.1,7.5,0.1c5.8,0,10.8-0.5,15.1-1.5
		s8-2.4,11.1-4.2c3.2-1.9,5.9-4.4,8-7.5s3.1-7.2,3.1-12.1s-0.9-8.8-2.7-12.2c-1.8-3.4-4.1-6.5-6.9-9.3c-1.8-1.8-4.8-4.4-8.9-7.9
		c-4.2-3.5-8.2-7-12.1-10.4c-4.9-4.4-8.7-9.3-11.4-14.8c-2.7-5.4-4.1-11.9-4.1-19.3s1.6-13.7,4.9-19.5c3.2-5.8,7.7-10.6,13.5-14.6
		c5-3.4,11-6,18-7.6s14-2.4,21.1-2.4h6.9l1.4,18.5c-0.9,0-2.3,0-4.2-0.1c-1.8-0.1-3.8-0.1-5.9-0.1c-5,0-9.8,0.5-14.4,1.5
		c-4.6,1-8.1,2.4-10.8,4.2c-2.8,2-5.1,4.5-6.9,7.4c-1.8,3-2.7,6.4-2.7,10.3c0,4.2,0.7,7.9,2.1,11.1c1.4,3.2,3.7,6.4,7,9.5
		c2.8,2.7,6.1,5.6,9.9,8.6c3.8,3,7.2,6,10.4,8.9c5.5,4.9,9.7,10.2,12.6,15.9C1176.6,171.3,1178,177.6,1178,184.5L1178,184.5z"/>
</g>
</svg>
